<mxfile host="65bd71144e">
    <diagram id="jxxsH7cqXSljiuRxzChV" name="Page-1">
        <mxGraphModel dx="705" dy="551" grid="1" gridSize="10" guides="1" tooltips="1" connect="1" arrows="1" fold="1" page="1" pageScale="1" pageWidth="827" pageHeight="1169" math="0" shadow="0">
            <root>
                <mxCell id="0"/>
                <mxCell id="1" parent="0"/>
                <object label="%nominal%&lt;br&gt;%branch%&lt;br&gt;ID %id%" nominal="10" placeholders="1" branch="1" id="2">
                    <mxCell style="pointerEvents=1;verticalLabelPosition=bottom;shadow=0;dashed=0;align=center;html=1;verticalAlign=top;shape=mxgraph.electrical.resistors.resistor_1;sketch=1;curveFitting=1;jiggle=3;comic=1;" parent="1" vertex="1">
                        <mxGeometry x="170" y="140" width="100" height="20" as="geometry"/>
                    </mxCell>
                </object>
                <object label="%branch%&lt;br&gt;ID %id%" placeholders="1" branch="1" id="3">
                    <mxCell style="pointerEvents=1;verticalLabelPosition=bottom;shadow=0;dashed=0;align=center;html=1;verticalAlign=top;shape=mxgraph.electrical.signal_sources.source;aspect=fixed;points=[[0.5,0,0],[1,0.5,0],[0.5,1,0],[0,0.5,0]];elSignalType=dc1;sketch=1;curveFitting=1;jiggle=3;comic=1;" parent="1" vertex="1">
                        <mxGeometry x="330" y="120" width="60" height="60" as="geometry"/>
                    </mxCell>
                </object>
                <object label="ID %id%" nominal="2" placeholders="1" branch="5" id="5">
                    <mxCell style="pointerEvents=1;verticalLabelPosition=bottom;shadow=0;dashed=0;align=center;html=1;verticalAlign=top;shape=mxgraph.electrical.resistors.resistor_1;sketch=1;curveFitting=1;jiggle=3;comic=1;" parent="1" vertex="1">
                        <mxGeometry x="430" y="290" width="100" height="20" as="geometry"/>
                    </mxCell>
                </object>
                <object label="%nominal%&lt;br&gt;&lt;span style=&quot;background-color: rgb(42, 37, 47);&quot;&gt;ID %id%&lt;/span&gt;" placeholders="1" nominal="11" id="6">
                    <mxCell style="pointerEvents=1;verticalLabelPosition=bottom;shadow=0;dashed=0;align=center;html=1;verticalAlign=top;shape=mxgraph.electrical.resistors.resistor_1;rotation=90;sketch=1;curveFitting=1;jiggle=3;comic=1;" parent="1" vertex="1">
                        <mxGeometry x="510" y="390" width="100" height="20" as="geometry"/>
                    </mxCell>
                </object>
                <object label="%nominal%&lt;br&gt;&lt;span style=&quot;background-color: rgb(42, 37, 47);&quot;&gt;ID %id%&lt;/span&gt;" placeholders="1" nominal="37.6" branch="6" id="7">
                    <mxCell style="pointerEvents=1;verticalLabelPosition=bottom;shadow=0;dashed=0;align=center;html=1;verticalAlign=top;shape=mxgraph.electrical.resistors.resistor_1;rotation=90;sketch=1;curveFitting=1;jiggle=3;comic=1;" parent="1" vertex="1">
                        <mxGeometry x="310" y="390" width="100" height="20" as="geometry"/>
                    </mxCell>
                </object>
                <object label="ID %id%" placeholders="1" id="8">
                    <mxCell style="pointerEvents=1;verticalLabelPosition=bottom;shadow=0;dashed=0;align=center;html=1;verticalAlign=top;shape=mxgraph.electrical.signal_sources.source;aspect=fixed;points=[[0.5,0,0],[1,0.5,0],[0.5,1,0],[0,0.5,0]];elSignalType=dc1;sketch=1;curveFitting=1;jiggle=3;comic=1;" parent="1" vertex="1">
                        <mxGeometry x="430" y="495" width="60" height="60" as="geometry"/>
                    </mxCell>
                </object>
                <object label="&lt;span style=&quot;&quot;&gt;ID %id%&lt;/span&gt;" placeholders="1" id="10">
                    <mxCell style="shape=sumEllipse;perimeter=ellipsePerimeter;whiteSpace=wrap;html=1;backgroundOutline=1;sketch=1;curveFitting=1;jiggle=3;comic=1;" parent="1" vertex="1">
                        <mxGeometry x="345" y="510" width="30" height="30" as="geometry"/>
                    </mxCell>
                </object>
                <object label="&lt;span style=&quot;&quot;&gt;ID %id%&lt;/span&gt;" placeholders="1" node_id="%id%" id="11">
                    <mxCell style="shape=sumEllipse;perimeter=ellipsePerimeter;whiteSpace=wrap;html=1;backgroundOutline=1;sketch=1;curveFitting=1;jiggle=3;comic=1;" parent="1" vertex="1">
                        <mxGeometry x="345" y="285" width="30" height="30" as="geometry"/>
                    </mxCell>
                </object>
                <object label="&lt;span style=&quot;&quot;&gt;ID %id%&lt;/span&gt;" placeholders="1" id="12">
                    <mxCell style="shape=sumEllipse;perimeter=ellipsePerimeter;whiteSpace=wrap;html=1;backgroundOutline=1;sketch=1;curveFitting=1;jiggle=3;comic=1;" parent="1" vertex="1">
                        <mxGeometry x="545" y="285" width="30" height="30" as="geometry"/>
                    </mxCell>
                </object>
                <object label="" placeholders="1" branch="1" id="14">
                    <mxCell style="endArrow=classicThin;html=1;entryX=0.5;entryY=0;entryDx=0;entryDy=0;exitX=1;exitY=0.5;exitDx=0;exitDy=0;exitPerimeter=0;edgeStyle=orthogonalEdgeStyle;sketch=1;curveFitting=1;jiggle=3;comic=1;endFill=1;" parent="1" source="3" target="12" edge="1">
                        <mxGeometry width="50" height="50" relative="1" as="geometry">
                            <mxPoint x="430" y="320" as="sourcePoint"/>
                            <mxPoint x="480" y="270" as="targetPoint"/>
                        </mxGeometry>
                    </mxCell>
                </object>
                <mxCell id="18" value="" style="endArrow=classicThin;html=1;exitX=1;exitY=0.5;exitDx=0;exitDy=0;sketch=1;curveFitting=1;jiggle=3;comic=1;endFill=1;exitPerimeter=0;entryX=0;entryY=0.5;entryDx=0;entryDy=0;" parent="1" source="4" target="11" edge="1">
                    <mxGeometry width="50" height="50" relative="1" as="geometry">
                        <mxPoint x="360" y="240" as="sourcePoint"/>
                        <mxPoint x="270" y="360" as="targetPoint"/>
                    </mxGeometry>
                </mxCell>
                <object label="" branch="5" id="20">
                    <mxCell style="endArrow=classicThin;html=1;entryX=1;entryY=0.5;entryDx=0;entryDy=0;exitX=0;exitY=0.5;exitDx=0;exitDy=0;exitPerimeter=0;sketch=1;curveFitting=1;jiggle=3;comic=1;endFill=1;" parent="1" source="5" target="11" edge="1">
                        <mxGeometry width="50" height="50" relative="1" as="geometry">
                            <mxPoint x="380" y="260" as="sourcePoint"/>
                            <mxPoint x="320" y="260" as="targetPoint"/>
                        </mxGeometry>
                    </mxCell>
                </object>
                <object label="" branch="5" id="21">
                    <mxCell style="endArrow=classicThin;html=1;entryX=1;entryY=0.5;entryDx=0;entryDy=0;entryPerimeter=0;exitX=0;exitY=0.5;exitDx=0;exitDy=0;sketch=1;curveFitting=1;jiggle=3;comic=1;endFill=1;" parent="1" source="12" target="5" edge="1">
                        <mxGeometry width="50" height="50" relative="1" as="geometry">
                            <mxPoint x="390" y="270" as="sourcePoint"/>
                            <mxPoint x="330" y="270" as="targetPoint"/>
                        </mxGeometry>
                    </mxCell>
                </object>
                <object label="" placeholders="1" branch="3" id="23">
                    <mxCell style="endArrow=none;html=1;entryX=1;entryY=0.5;entryDx=0;entryDy=0;entryPerimeter=0;exitX=1;exitY=0.5;exitDx=0;exitDy=0;exitPerimeter=0;edgeStyle=orthogonalEdgeStyle;sketch=1;curveFitting=1;jiggle=3;comic=1;" parent="1" source="6" target="8" edge="1">
                        <mxGeometry width="50" height="50" relative="1" as="geometry">
                            <mxPoint x="435" y="380" as="sourcePoint"/>
                            <mxPoint x="375" y="380" as="targetPoint"/>
                        </mxGeometry>
                    </mxCell>
                </object>
                <mxCell id="25" value="" style="endArrow=none;html=1;exitX=0;exitY=0.5;exitDx=0;exitDy=0;exitPerimeter=0;sketch=1;curveFitting=1;jiggle=3;comic=1;entryX=0.5;entryY=1;entryDx=0;entryDy=0;" parent="1" source="9" target="13" edge="1">
                    <mxGeometry width="50" height="50" relative="1" as="geometry">
                        <mxPoint x="270" y="390" as="sourcePoint"/>
                        <mxPoint x="170" y="350" as="targetPoint"/>
                        <Array as="points">
                            <mxPoint x="120" y="330"/>
                        </Array>
                    </mxGeometry>
                </mxCell>
                <mxCell id="26" value="" style="endArrow=classicThin;html=1;entryX=1;entryY=0.5;entryDx=0;entryDy=0;entryPerimeter=0;exitX=0;exitY=0.5;exitDx=0;exitDy=0;edgeStyle=orthogonalEdgeStyle;sketch=1;curveFitting=1;jiggle=3;comic=1;endFill=1;" parent="1" source="10" target="9" edge="1">
                    <mxGeometry width="50" height="50" relative="1" as="geometry">
                        <mxPoint x="270" y="380" as="sourcePoint"/>
                        <mxPoint x="210" y="380" as="targetPoint"/>
                    </mxGeometry>
                </mxCell>
                <mxCell id="27" value="" style="endArrow=classicThin;html=1;entryX=0.5;entryY=0;entryDx=0;entryDy=0;exitX=1;exitY=0.5;exitDx=0;exitDy=0;exitPerimeter=0;sketch=1;curveFitting=1;jiggle=3;comic=1;endFill=1;" parent="1" source="7" target="10" edge="1">
                    <mxGeometry width="50" height="50" relative="1" as="geometry">
                        <mxPoint x="320" y="440" as="sourcePoint"/>
                        <mxPoint x="260" y="440" as="targetPoint"/>
                        <Array as="points">
                            <mxPoint x="360" y="470"/>
                        </Array>
                    </mxGeometry>
                </mxCell>
                <mxCell id="31" value="" style="curved=1;endArrow=classic;html=1;sketch=1;comic=1;jiggle=3;" parent="1" edge="1">
                    <mxGeometry width="50" height="50" relative="1" as="geometry">
                        <mxPoint x="100" y="255" as="sourcePoint"/>
                        <mxPoint x="270" y="165" as="targetPoint"/>
                        <Array as="points">
                            <mxPoint x="100" y="215"/>
                            <mxPoint x="110" y="165"/>
                        </Array>
                    </mxGeometry>
                </mxCell>
                <mxCell id="32" value="I1" style="edgeLabel;html=1;align=center;verticalAlign=middle;resizable=0;points=[];fontSize=32;fontFamily=Comic Sans MS;comic=1;jiggle=3;" parent="31" vertex="1" connectable="0">
                    <mxGeometry x="0.5631" y="-1" relative="1" as="geometry">
                        <mxPoint x="-45" y="-26" as="offset"/>
                    </mxGeometry>
                </mxCell>
                <mxCell id="34" value="" style="endArrow=classic;html=1;sketch=1;fontSize=32;curved=1;comic=1;jiggle=3;" parent="1" edge="1">
                    <mxGeometry width="50" height="50" relative="1" as="geometry">
                        <mxPoint x="510" y="270" as="sourcePoint"/>
                        <mxPoint x="420" y="270" as="targetPoint"/>
                    </mxGeometry>
                </mxCell>
                <mxCell id="35" value="I5" style="edgeLabel;html=1;align=center;verticalAlign=middle;resizable=0;points=[];fontSize=32;fontFamily=Comic Sans MS;comic=1;jiggle=3;" parent="34" vertex="1" connectable="0">
                    <mxGeometry x="-0.5372" y="-1" relative="1" as="geometry">
                        <mxPoint as="offset"/>
                    </mxGeometry>
                </mxCell>
                <mxCell id="36" value="" style="endArrow=classic;html=1;sketch=1;fontSize=32;curved=1;comic=1;jiggle=3;" parent="1" edge="1">
                    <mxGeometry width="50" height="50" relative="1" as="geometry">
                        <mxPoint x="160" y="270" as="sourcePoint"/>
                        <mxPoint x="240" y="270" as="targetPoint"/>
                    </mxGeometry>
                </mxCell>
                <mxCell id="37" value="I4" style="edgeLabel;html=1;align=center;verticalAlign=middle;resizable=0;points=[];fontSize=32;fontFamily=Comic Sans MS;comic=1;jiggle=3;" parent="36" vertex="1" connectable="0">
                    <mxGeometry x="0.4544" y="1" relative="1" as="geometry">
                        <mxPoint x="-18" as="offset"/>
                    </mxGeometry>
                </mxCell>
                <mxCell id="38" value="" style="endArrow=classic;html=1;sketch=1;fontSize=32;curved=1;comic=1;jiggle=3;" parent="1" edge="1">
                    <mxGeometry width="50" height="50" relative="1" as="geometry">
                        <mxPoint x="160" y="430" as="sourcePoint"/>
                        <mxPoint x="160" y="370" as="targetPoint"/>
                    </mxGeometry>
                </mxCell>
                <mxCell id="39" value="I2" style="edgeLabel;html=1;align=center;verticalAlign=middle;resizable=0;points=[];fontSize=32;fontFamily=Comic Sans MS;comic=1;jiggle=3;" parent="38" vertex="1" connectable="0">
                    <mxGeometry x="-0.3668" relative="1" as="geometry">
                        <mxPoint x="20" y="-1" as="offset"/>
                    </mxGeometry>
                </mxCell>
                <mxCell id="40" value="" style="endArrow=classic;html=1;sketch=1;fontFamily=Comic Sans MS;fontSize=32;curved=1;comic=1;jiggle=3;" parent="1" edge="1">
                    <mxGeometry width="50" height="50" relative="1" as="geometry">
                        <mxPoint x="400" y="320" as="sourcePoint"/>
                        <mxPoint x="400" y="390" as="targetPoint"/>
                    </mxGeometry>
                </mxCell>
                <mxCell id="41" value="I6" style="edgeLabel;html=1;align=center;verticalAlign=middle;resizable=0;points=[];fontSize=32;fontFamily=Comic Sans MS;comic=1;jiggle=3;" parent="40" vertex="1" connectable="0">
                    <mxGeometry x="0.4286" relative="1" as="geometry">
                        <mxPoint x="30" y="-20" as="offset"/>
                    </mxGeometry>
                </mxCell>
                <mxCell id="43" value="" style="endArrow=classic;html=1;sketch=1;fontFamily=Comic Sans MS;fontSize=32;curved=1;comic=1;jiggle=3;" parent="1" edge="1">
                    <mxGeometry width="50" height="50" relative="1" as="geometry">
                        <mxPoint x="590" y="440" as="sourcePoint"/>
                        <mxPoint x="590" y="370" as="targetPoint"/>
                    </mxGeometry>
                </mxCell>
                <mxCell id="44" value="I3" style="edgeLabel;html=1;align=center;verticalAlign=middle;resizable=0;points=[];fontSize=32;fontFamily=Comic Sans MS;comic=1;jiggle=3;" parent="43" vertex="1" connectable="0">
                    <mxGeometry x="-0.4001" y="-1" relative="1" as="geometry">
                        <mxPoint x="29" as="offset"/>
                    </mxGeometry>
                </mxCell>
                <object label="" placeholders="1" branch="4" id="47">
                    <mxCell style="endArrow=classic;html=1;rounded=1;labelBackgroundColor=default;comic=1;sketch=1;jiggle=3;curveFitting=1;strokeColor=default;fontFamily=Helvetica;fontSize=11;fontColor=default;shape=connector;exitX=1;exitY=0.5;exitDx=0;exitDy=0;entryX=0;entryY=0.5;entryDx=0;entryDy=0;entryPerimeter=0;" parent="1" source="13" target="4" edge="1">
                        <mxGeometry width="50" height="50" relative="1" as="geometry">
                            <mxPoint x="280" y="380" as="sourcePoint"/>
                            <mxPoint x="150" y="330" as="targetPoint"/>
                        </mxGeometry>
                    </mxCell>
                </object>
                <mxCell id="48" value="" style="endArrow=classic;html=1;rounded=1;labelBackgroundColor=default;comic=1;sketch=1;jiggle=3;curveFitting=1;strokeColor=default;fontFamily=Helvetica;fontSize=11;fontColor=default;shape=connector;entryX=0;entryY=0.5;entryDx=0;entryDy=0;entryPerimeter=0;exitX=0.5;exitY=1;exitDx=0;exitDy=0;" parent="1" source="11" target="7" edge="1">
                    <mxGeometry width="50" height="50" relative="1" as="geometry">
                        <mxPoint x="280" y="380" as="sourcePoint"/>
                        <mxPoint x="330" y="330" as="targetPoint"/>
                    </mxGeometry>
                </mxCell>
                <object label="" placeholders="1" branch="3" id="49">
                    <mxCell style="endArrow=classic;html=1;rounded=1;labelBackgroundColor=default;comic=1;sketch=1;jiggle=3;curveFitting=1;strokeColor=default;fontFamily=Helvetica;fontSize=11;fontColor=default;shape=connector;entryX=0;entryY=0.5;entryDx=0;entryDy=0;entryPerimeter=0;exitX=1;exitY=0.5;exitDx=0;exitDy=0;" parent="1" source="10" target="8" edge="1">
                        <mxGeometry width="50" height="50" relative="1" as="geometry">
                            <mxPoint x="280" y="380" as="sourcePoint"/>
                            <mxPoint x="330" y="330" as="targetPoint"/>
                        </mxGeometry>
                    </mxCell>
                </object>
                <mxCell id="50" value="" style="endArrow=classic;html=1;rounded=1;labelBackgroundColor=default;comic=1;sketch=1;jiggle=3;curveFitting=1;strokeColor=default;fontFamily=Helvetica;fontSize=11;fontColor=default;shape=connector;entryX=0.5;entryY=1;entryDx=0;entryDy=0;exitX=0;exitY=0.5;exitDx=0;exitDy=0;exitPerimeter=0;" parent="1" source="6" target="12" edge="1">
                    <mxGeometry width="50" height="50" relative="1" as="geometry">
                        <mxPoint x="280" y="380" as="sourcePoint"/>
                        <mxPoint x="330" y="330" as="targetPoint"/>
                    </mxGeometry>
                </mxCell>
                <mxCell id="15" value="" style="endArrow=none;html=1;entryX=1;entryY=0.5;entryDx=0;entryDy=0;entryPerimeter=0;exitX=0;exitY=0.5;exitDx=0;exitDy=0;exitPerimeter=0;sketch=1;curveFitting=1;jiggle=3;comic=1;" parent="1" source="3" target="2" edge="1">
                    <mxGeometry width="50" height="50" relative="1" as="geometry">
                        <mxPoint x="430" y="320" as="sourcePoint"/>
                        <mxPoint x="480" y="270" as="targetPoint"/>
                    </mxGeometry>
                </mxCell>
                <object label="" placeholders="1" branch="3" id="46">
                    <mxCell style="endArrow=classic;html=1;rounded=1;labelBackgroundColor=default;comic=1;sketch=1;jiggle=3;curveFitting=1;strokeColor=default;fontFamily=Comic Sans MS;fontSize=11;fontColor=default;shape=connector;entryX=0;entryY=0.5;entryDx=0;entryDy=0;entryPerimeter=0;exitX=0.5;exitY=0;exitDx=0;exitDy=0;edgeStyle=orthogonalEdgeStyle;" parent="1" source="13" target="2" edge="1">
                        <mxGeometry width="50" height="50" relative="1" as="geometry">
                            <mxPoint x="280" y="380" as="sourcePoint"/>
                            <mxPoint x="330" y="330" as="targetPoint"/>
                            <Array as="points">
                                <mxPoint x="120" y="150"/>
                            </Array>
                        </mxGeometry>
                    </mxCell>
                </object>
                <object label="&lt;span style=&quot;&quot;&gt;ID %id%&lt;/span&gt;" placeholders="1" node="%id%" id="13">
                    <mxCell style="shape=sumEllipse;perimeter=ellipsePerimeter;whiteSpace=wrap;html=1;backgroundOutline=1;sketch=1;curveFitting=1;jiggle=3;sketchStyle=rough;comic=1;" parent="1" vertex="1">
                        <mxGeometry x="105" y="285" width="30" height="30" as="geometry"/>
                    </mxCell>
                </object>
                <object label="ID %id%" placeholders="1" nominal="15" id="4">
                    <mxCell style="pointerEvents=1;verticalLabelPosition=bottom;shadow=0;dashed=0;align=center;html=1;verticalAlign=top;shape=mxgraph.electrical.resistors.resistor_1;sketch=1;curveFitting=1;jiggle=3;comic=1;" parent="1" vertex="1">
                        <mxGeometry x="180" y="290" width="100" height="20" as="geometry"/>
                    </mxCell>
                </object>
                <object label="%nominal%&lt;br&gt;&lt;span style=&quot;background-color: rgb(42, 37, 47);&quot;&gt;ID %id%&lt;/span&gt;" nominal="1.5" placeholders="1" branch="2" id="9">
                    <mxCell style="pointerEvents=1;verticalLabelPosition=bottom;shadow=0;dashed=0;align=center;html=1;verticalAlign=top;shape=mxgraph.electrical.resistors.resistor_1;rotation=90;sketch=1;curveFitting=1;jiggle=3;comic=1;" parent="1" vertex="1">
                        <mxGeometry x="70" y="390" width="100" height="20" as="geometry"/>
                    </mxCell>
                </object>
            </root>
        </mxGraphModel>
    </diagram>
</mxfile>